<?xml version="1.0" standalone="no"?>
<!DOCTYPE svg PUBLIC "-//W3C//DTD SVG 20010904//EN"
 "http://www.w3.org/TR/2001/REC-SVG-20010904/DTD/svg10.dtd">
<svg version="1.0" xmlns="http://www.w3.org/2000/svg"
 width="500.000000pt" height="500.000000pt" viewBox="0 0 500.000000 500.000000"
 preserveAspectRatio="xMidYMid meet">

<g transform="translate(0.000000,500.000000) scale(0.100000,-0.100000)"
fill="#000000" stroke="none">
<path d="M2300 3295 c-25 -40 -35 -43 -64 -16 -34 31 -96 31 -126 1 -30 -30
-27 -54 6 -46 24 6 26 5 21 -16 -4 -13 -4 -40 0 -61 4 -30 8 -35 19 -26 8 6
19 29 24 50 8 27 20 43 40 54 40 21 43 19 15 -9 -35 -35 -51 -102 -35 -146 7
-19 20 -40 29 -47 14 -11 13 -12 -6 -13 -26 0 -39 -16 -21 -24 7 -3 2 -4 -12
-2 -14 3 -43 8 -65 12 -22 3 -37 3 -32 -2 4 -4 26 -10 50 -13 37 -6 42 -9 39
-30 -9 -63 8 -109 63 -168 31 -33 55 -51 55 -43 0 8 11 23 25 32 23 17 24 17
30 -2 4 -13 15 -20 30 -20 22 0 24 3 19 29 -4 16 -1 32 5 35 7 4 11 -1 11 -12
0 -25 25 -46 45 -38 13 4 13 9 3 25 -10 16 -7 23 19 49 30 30 31 30 79 18 43
-11 49 -16 57 -47 5 -18 13 -39 18 -45 7 -9 -21 -13 -108 -16 -107 -3 -123 -6
-177 -33 -174 -89 -165 -294 16 -369 19 -9 66 -20 104 -26 89 -14 126 -28 122
-49 -3 -13 -19 -16 -98 -16 -79 1 -106 5 -157 27 l-63 26 0 -58 0 -58 48 -16
c113 -36 243 -42 329 -15 50 16 93 71 93 120 0 69 -60 105 -214 129 -77 12
-109 26 -103 43 6 20 115 19 212 -2 50 -10 92 -17 95 -14 4 4 28 218 29 265 1
25 -3 28 -41 34 -37 6 -39 8 -23 21 15 10 16 16 7 25 -18 18 -14 59 9 103 12
22 25 63 28 90 5 42 10 51 29 53 29 4 49 40 27 48 -9 4 -22 21 -29 39 -8 18
-28 39 -44 48 -28 13 -33 13 -61 -4 -17 -10 -40 -39 -52 -63 -28 -60 -53 -67
-90 -27 -33 36 -56 39 -93 10 -15 -12 -29 -19 -32 -16 -3 3 12 16 35 29 37 21
39 24 24 40 -10 11 -16 39 -17 78 -2 33 -4 62 -7 64 -7 6 -101 46 -109 46 -5
0 -18 -16 -30 -35z m197 -251 c-3 -3 -12 -4 -19 -1 -8 3 -5 6 6 6 11 1 17 -2
13 -5z m-199 -60 c12 -8 22 -24 22 -35 0 -16 3 -18 19 -9 28 15 31 13 31 -20
0 -25 -5 -31 -32 -38 -22 -6 -37 -19 -51 -46 -19 -36 -21 -37 -34 -20 -7 10
-13 28 -13 41 0 13 -4 23 -10 23 -18 0 -11 58 8 69 14 8 15 13 4 30 -11 19
-10 21 11 21 12 0 33 -7 45 -16z"/>
<path d="M3270 3100 l0 -120 170 0 170 0 0 120 0 120 -170 0 -170 0 0 -120z
m83 62 c66 -25 57 -48 -10 -27 -23 7 -23 7 -8 -28 13 -32 12 -47 -5 -47 -12 0
-42 89 -36 105 7 18 1 19 59 -3z m191 -17 c31 -14 56 -29 56 -35 0 -10 -57
-42 -97 -54 -36 -11 -17 22 21 38 l31 13 -31 16 c-17 9 -34 23 -37 32 -8 19
-10 19 57 -10z m-128 -93 c-30 -31 -59 -53 -63 -49 -9 10 98 118 110 110 5 -3
-16 -31 -47 -61z"/>
<path d="M2076 3081 c-14 -16 -15 -23 -6 -41 l12 -22 21 22 c19 21 19 24 4 35
-9 7 -14 15 -10 18 3 4 4 7 1 7 -3 0 -13 -9 -22 -19z"/>
<path d="M1460 2868 c0 -62 3 -245 7 -405 l6 -293 183 0 c206 0 264 9 347 53
140 74 205 221 185 419 -12 120 -79 228 -175 280 -88 48 -149 58 -360 58
l-193 0 0 -112z m355 -358 c56 -13 85 -49 85 -106 0 -92 -35 -114 -181 -114
l-102 0 7 61 c3 34 6 86 6 115 l0 54 73 0 c39 0 90 -5 112 -10z"/>
<path d="M2813 2783 c4 -108 7 -290 7 -405 l0 -208 185 0 c199 0 262 9 342 47
259 126 269 568 15 706 -87 47 -148 57 -361 57 l-194 0 6 -197z m394 -289 c66
-49 68 -138 4 -181 -30 -20 -46 -23 -132 -23 l-99 0 0 116 0 116 100 -4 c81
-3 105 -8 127 -24z"/>
<path d="M1208 1829 c-24 -14 -33 -71 -16 -106 17 -35 52 -42 68 -13 15 28 4
39 -15 14 -15 -19 -15 -19 -30 0 -18 23 -19 50 -4 77 8 16 13 18 25 8 19 -16
30 -4 14 16 -14 17 -19 18 -42 4z"/>
<path d="M1415 1828 c-11 -27 9 -73 33 -76 14 -2 22 -11 22 -24 0 -16 -4 -19
-25 -14 -19 5 -23 3 -18 -9 3 -10 15 -15 32 -13 25 3 26 6 29 76 2 42 -1 72
-7 72 -5 0 -11 -14 -13 -32 -4 -45 -24 -46 -35 -1 -8 29 -12 34 -18 21z"/>
<path d="M1640 1766 c0 -58 3 -76 14 -76 17 0 38 24 35 42 -1 7 4 26 11 41 17
36 4 61 -34 65 l-26 3 0 -75z m47 38 c3 -8 -2 -23 -11 -32 -15 -15 -16 -14
-16 16 0 33 16 43 27 16z"/>
<path d="M1860 1765 c0 -73 1 -75 25 -75 14 0 25 5 25 10 0 6 -7 10 -15 10
-18 0 -21 46 -2 54 10 5 10 7 0 12 -18 8 -16 44 2 44 8 0 15 5 15 10 0 6 -11
10 -25 10 -24 0 -25 -2 -25 -75z"/>
<path d="M2057 1833 c-11 -10 -8 -131 3 -138 6 -3 10 1 10 9 0 18 16 21 25 6
12 -20 26 -10 14 11 -8 15 -8 24 0 32 17 17 13 52 -7 70 -20 18 -34 21 -45 10z
m38 -48 c0 -10 -6 -20 -12 -22 -8 -3 -13 5 -13 22 0 17 5 25 13 23 6 -3 12
-13 12 -23z"/>
<path d="M2276 1825 c-12 -12 -13 -22 -4 -45 5 -17 14 -33 19 -36 19 -12 9
-32 -13 -27 -22 5 -22 5 -6 -12 39 -41 65 15 29 62 -11 13 -17 31 -14 39 7 19
23 18 23 -1 0 -17 16 -20 25 -6 6 10 -21 41 -35 41 -5 0 -15 -7 -24 -15z"/>
<path d="M2480 1765 c0 -73 1 -75 25 -75 14 0 25 5 25 10 0 6 -7 10 -15 10
-18 0 -20 31 -2 49 10 11 10 14 0 18 -18 7 -16 43 2 43 8 0 15 5 15 10 0 6
-11 10 -25 10 -24 0 -25 -2 -25 -75z"/>
<path d="M2696 1818 c-35 -49 -5 -138 41 -124 22 7 38 34 27 45 -3 3 -12 -3
-20 -13 -19 -26 -44 -5 -44 38 0 39 18 60 37 44 18 -15 29 -2 13 17 -18 21
-36 19 -54 -7z"/>
<path d="M2918 1834 c-24 -24 3 -144 32 -144 30 0 66 118 42 142 -6 6 -12 -12
-16 -51 -7 -57 -19 -81 -34 -66 -4 4 -9 34 -12 67 -3 33 -8 56 -12 52z"/>
<path d="M3140 1765 c0 -43 4 -75 10 -75 6 0 10 10 10 23 1 20 2 21 14 5 19
-25 25 -22 24 10 0 15 3 37 7 49 8 23 -23 63 -50 63 -12 0 -15 -15 -15 -75z
m50 20 c0 -7 -7 -18 -15 -25 -13 -11 -15 -7 -15 25 0 32 2 36 15 25 8 -7 15
-18 15 -25z"/>
<path d="M3355 1831 c-3 -5 -1 -12 5 -16 5 -3 10 -26 10 -50 0 -24 -5 -47 -10
-50 -14 -9 -2 -25 18 -25 14 0 17 11 17 75 0 64 -3 75 -17 75 -9 0 -19 -4 -23
-9z"/>
<path d="M3540 1830 c0 -5 5 -10 10 -10 6 0 10 -28 10 -65 0 -37 4 -65 10 -65
6 0 10 28 10 65 0 37 4 65 10 65 6 0 10 5 10 10 0 6 -13 10 -30 10 -16 0 -30
-4 -30 -10z"/>
<path d="M3740 1814 c0 -37 18 -64 41 -64 14 0 19 -5 17 -17 -3 -12 -12 -17
-27 -15 -27 2 -24 -21 3 -26 33 -7 46 17 46 84 0 66 -16 89 -22 32 -2 -21 -8
-33 -18 -33 -10 0 -16 12 -18 33 -4 38 -22 44 -22 6z"/>
</g>
</svg>
