<?xml version="1.0" standalone="no"?>
<!DOCTYPE svg PUBLIC "-//W3C//DTD SVG 20010904//EN"
 "http://www.w3.org/TR/2001/REC-SVG-20010904/DTD/svg10.dtd">
<svg version="1.0" xmlns="http://www.w3.org/2000/svg"
 width="500.000000pt" height="500.000000pt" viewBox="0 0 500.000000 500.000000"
 preserveAspectRatio="xMidYMid meet">
<rect width="100%" height="100%" fill="#FFFFFF"/>
<g transform="translate(0.000000,500.000000) scale(0.100000,-0.100000)"
fill="#000000" stroke="none">
<path d="M2470 3450 l0 -120 170 0 170 0 0 120 0 120 -170 0 -170 0 0 -120z
m109 54 c43 -18 30 -41 -13 -24 -42 16 -46 13 -31 -24 13 -31 11 -46 -6 -46
-11 0 -41 98 -34 110 7 11 26 7 84 -16z m172 -10 c28 -14 49 -30 47 -36 -2 -6
-27 -21 -56 -34 -41 -18 -52 -20 -52 -9 0 8 15 22 32 31 l33 17 -33 15 c-17 9
-32 22 -32 29 0 18 3 17 61 -13z m-135 -92 c-30 -31 -59 -53 -63 -49 -9 10 98
118 110 110 5 -3 -16 -31 -47 -61z"/>
<path d="M2441 3441 c-7 -5 -11 -13 -7 -19 9 -15 -14 -71 -34 -82 -10 -6 -28
-10 -40 -10 -16 0 -21 5 -19 23 4 29 -8 47 -31 47 -22 0 -39 -26 -33 -50 10
-38 -127 -28 -154 10 -16 23 -43 27 -43 7 0 -24 34 -46 88 -58 29 -7 50 -14
48 -17 -2 -2 4 -12 15 -23 23 -23 24 -44 4 -83 -8 -15 -15 -39 -15 -52 0 -30
-99 -134 -127 -134 -12 0 -23 -8 -26 -20 -3 -12 -14 -20 -27 -20 -17 0 -20 -4
-15 -22 6 -18 4 -20 -11 -13 -122 51 -110 49 -336 53 l-218 4 0 -114 c0 -62 3
-245 7 -405 l6 -293 183 0 c206 0 264 9 347 53 140 74 205 221 185 419 -8 82
-41 157 -97 220 -22 25 -39 52 -36 60 3 7 39 31 81 53 42 22 90 57 108 77 24
27 43 39 72 43 46 7 53 3 79 -47 11 -21 23 -38 28 -38 4 0 12 -11 17 -25 13
-34 23 -31 43 10 19 41 21 55 7 55 -5 0 -10 -6 -10 -14 0 -8 -8 -17 -17 -20
-10 -4 -14 -4 -11 0 4 4 -1 18 -12 31 -11 14 -22 40 -26 59 -5 28 -12 35 -43
44 -20 5 -42 10 -48 10 -33 0 9 84 72 146 38 36 56 62 60 87 9 45 4 59 -14 48z
m-626 -931 c56 -13 85 -49 85 -106 0 -92 -35 -114 -181 -114 l-102 0 7 61 c3
34 6 86 6 115 l0 54 73 0 c39 0 90 -5 112 -10z"/>
<path d="M2813 2798 c4 -99 7 -282 7 -405 l0 -223 185 0 c199 0 262 9 342 47
259 126 269 568 15 706 -87 47 -148 57 -361 57 l-194 0 6 -182z m394 -304 c66
-49 68 -138 4 -181 -30 -20 -46 -23 -132 -23 l-99 0 0 116 0 116 100 -4 c81
-3 105 -8 127 -24z"/>
<path d="M2425 2750 c-119 -29 -195 -111 -195 -207 1 -57 33 -118 80 -152 48
-34 79 -46 170 -61 87 -14 122 -29 118 -49 -3 -13 -19 -16 -98 -16 -79 1 -106
5 -157 27 l-63 26 0 -58 0 -58 48 -16 c113 -36 243 -42 329 -15 49 15 93 72
93 118 0 70 -59 106 -217 131 -39 6 -79 17 -89 24 -52 38 54 47 201 17 50 -10
92 -17 94 -15 7 6 34 284 28 290 -19 20 -277 31 -342 14z"/>
<path d="M1208 1829 c-24 -14 -33 -71 -16 -106 17 -35 52 -42 68 -13 15 28 4
39 -15 14 -15 -19 -15 -19 -30 0 -18 23 -19 50 -4 77 8 16 13 18 25 8 19 -16
30 -4 14 16 -14 17 -19 18 -42 4z"/>
<path d="M1415 1828 c-11 -27 9 -73 33 -76 14 -2 22 -11 22 -24 0 -16 -4 -19
-25 -14 -19 5 -23 3 -18 -9 3 -10 15 -15 32 -13 25 3 26 6 29 76 2 42 -1 72
-7 72 -5 0 -11 -14 -13 -32 -4 -45 -24 -46 -35 -1 -8 29 -12 34 -18 21z"/>
<path d="M1640 1766 c0 -58 3 -76 14 -76 17 0 38 24 35 42 -1 7 4 26 11 41 17
36 4 61 -34 65 l-26 3 0 -75z m47 38 c3 -8 -2 -23 -11 -32 -15 -15 -16 -14
-16 16 0 33 16 43 27 16z"/>
<path d="M1860 1765 c0 -73 1 -75 25 -75 14 0 25 5 25 10 0 6 -7 10 -15 10
-18 0 -21 46 -2 54 10 5 10 7 0 12 -18 8 -16 44 2 44 8 0 15 5 15 10 0 6 -11
10 -25 10 -24 0 -25 -2 -25 -75z"/>
<path d="M2057 1833 c-11 -10 -8 -131 3 -138 6 -3 10 1 10 9 0 18 16 21 25 6
12 -20 26 -10 14 11 -8 15 -8 24 0 32 17 17 13 52 -7 70 -20 18 -34 21 -45 10z
m38 -48 c0 -10 -6 -20 -12 -22 -8 -3 -13 5 -13 22 0 17 5 25 13 23 6 -3 12
-13 12 -23z"/>
<path d="M2276 1825 c-12 -12 -13 -22 -4 -45 5 -17 14 -33 19 -36 19 -12 9
-32 -13 -27 -22 5 -22 5 -6 -12 39 -41 65 15 29 62 -11 13 -17 31 -14 39 7 19
23 18 23 -1 0 -17 16 -20 25 -6 6 10 -21 41 -35 41 -5 0 -15 -7 -24 -15z"/>
<path d="M2480 1765 c0 -73 1 -75 25 -75 14 0 25 5 25 10 0 6 -7 10 -15 10
-18 0 -20 31 -2 49 10 11 10 14 0 18 -18 7 -16 43 2 43 8 0 15 5 15 10 0 6
-11 10 -25 10 -24 0 -25 -2 -25 -75z"/>
<path d="M2696 1818 c-35 -49 -5 -138 41 -124 22 7 38 34 27 45 -3 3 -12 -3
-20 -13 -19 -26 -44 -5 -44 38 0 39 18 60 37 44 18 -15 29 -2 13 17 -18 21
-36 19 -54 -7z"/>
<path d="M2918 1834 c-24 -24 3 -144 32 -144 30 0 66 118 42 142 -6 6 -12 -12
-16 -51 -7 -57 -19 -81 -34 -66 -4 4 -9 34 -12 67 -3 33 -8 56 -12 52z"/>
<path d="M3140 1765 c0 -43 4 -75 10 -75 6 0 10 10 10 23 1 20 2 21 14 5 19
-25 25 -22 24 10 0 15 3 37 7 49 8 23 -23 63 -50 63 -12 0 -15 -15 -15 -75z
m50 20 c0 -7 -7 -18 -15 -25 -13 -11 -15 -7 -15 25 0 32 2 36 15 25 8 -7 15
-18 15 -25z"/>
<path d="M3355 1831 c-3 -5 -1 -12 5 -16 5 -3 10 -26 10 -50 0 -24 -5 -47 -10
-50 -14 -9 -2 -25 18 -25 14 0 17 11 17 75 0 64 -3 75 -17 75 -9 0 -19 -4 -23
-9z"/>
<path d="M3540 1830 c0 -5 5 -10 10 -10 6 0 10 -28 10 -65 0 -37 4 -65 10 -65
6 0 10 28 10 65 0 37 4 65 10 65 6 0 10 5 10 10 0 6 -13 10 -30 10 -16 0 -30
-4 -30 -10z"/>
<path d="M3740 1814 c0 -37 18 -64 41 -64 14 0 19 -5 17 -17 -3 -12 -12 -17
-27 -15 -27 2 -24 -21 3 -26 33 -7 46 17 46 84 0 66 -16 89 -22 32 -2 -21 -8
-33 -18 -33 -10 0 -16 12 -18 33 -4 38 -22 44 -22 6z"/>
</g>
</svg>
